<svg width="203" height="203" viewBox="0 0 203 203" fill="none" xmlns="http://www.w3.org/2000/svg">
<g filter="url(#filter0_dd_267_201)">
<rect x="14" y="14" width="181" height="181" rx="60" fill="url(#paint0_linear_267_201)"/>
</g>
<path d="M25.7031 94.4453H34.668C39.3294 94.4453 42.9492 95.6758 45.5273 98.1367C48.1055 100.598 49.3945 104.035 49.3945 108.449C49.3945 113.15 48.0534 116.75 45.3711 119.25C42.7018 121.75 38.8411 123 33.7891 123H25.7031V94.4453ZM31.7578 99.4062V118H34.3555C40.1888 118 43.1055 114.868 43.1055 108.605C43.1055 102.473 40.3971 99.4062 34.9805 99.4062H31.7578ZM64.3164 100.754C66.3216 100.754 68.112 101.21 69.6875 102.121C71.276 103.02 72.5 104.322 73.3594 106.027C74.2318 107.72 74.668 109.66 74.668 111.848C74.668 111.913 74.668 111.978 74.668 112.043C74.668 115.598 73.7305 118.378 71.8555 120.383C69.9805 122.388 67.3698 123.391 64.0234 123.391C63.9714 123.391 63.9128 123.391 63.8477 123.391C61.8424 123.391 60.0456 122.935 58.457 122.023C56.8815 121.099 55.6576 119.784 54.7852 118.078C53.9258 116.372 53.4961 114.426 53.4961 112.238C53.4961 112.173 53.4961 112.108 53.4961 112.043C53.4961 108.475 54.4271 105.708 56.2891 103.742C58.151 101.75 60.7682 100.754 64.1406 100.754C64.1927 100.754 64.2513 100.754 64.3164 100.754ZM67.5 107.16C66.7839 106.092 65.638 105.559 64.0625 105.559C62.487 105.559 61.3411 106.086 60.625 107.141C59.9219 108.195 59.5703 109.829 59.5703 112.043C59.5703 114.243 59.9284 115.891 60.6445 116.984C61.3737 118.065 62.5195 118.605 64.082 118.605C65.6576 118.605 66.7969 118.065 67.5 116.984C68.2161 115.904 68.5742 114.263 68.5742 112.062C68.5742 109.849 68.2161 108.215 67.5 107.16ZM85.5664 123H79.6094V92.6094H85.5664V106.164L85.2539 111.125H85.332L87.9297 107.805L94.043 101.164H100.762L92.0898 110.637L101.289 123H94.4141L88.125 114.152L85.5664 116.203V123ZM111.016 101.164H117.129V105.637H111.016V116.164C111.016 116.984 111.243 117.603 111.699 118.02C112.168 118.436 112.858 118.645 113.77 118.645C114.681 118.645 115.879 118.417 117.363 117.961V122.395C115.879 123.059 114.004 123.391 111.738 123.391C109.486 123.391 107.806 122.798 106.699 121.613C105.605 120.415 105.059 118.599 105.059 116.164V105.637H102.207V103.117L105.488 101.125L107.207 96.5156H111.016V101.164ZM131.27 100.754C133.275 100.754 135.065 101.21 136.641 102.121C138.229 103.02 139.453 104.322 140.312 106.027C141.185 107.72 141.621 109.66 141.621 111.848C141.621 111.913 141.621 111.978 141.621 112.043C141.621 115.598 140.684 118.378 138.809 120.383C136.934 122.388 134.323 123.391 130.977 123.391C130.924 123.391 130.866 123.391 130.801 123.391C128.796 123.391 126.999 122.935 125.41 122.023C123.835 121.099 122.611 119.784 121.738 118.078C120.879 116.372 120.449 114.426 120.449 112.238C120.449 112.173 120.449 112.108 120.449 112.043C120.449 108.475 121.38 105.708 123.242 103.742C125.104 101.75 127.721 100.754 131.094 100.754C131.146 100.754 131.204 100.754 131.27 100.754ZM134.453 107.16C133.737 106.092 132.591 105.559 131.016 105.559C129.44 105.559 128.294 106.086 127.578 107.141C126.875 108.195 126.523 109.829 126.523 112.043C126.523 114.243 126.882 115.891 127.598 116.984C128.327 118.065 129.473 118.605 131.035 118.605C132.611 118.605 133.75 118.065 134.453 116.984C135.169 115.904 135.527 114.263 135.527 112.062C135.527 109.849 135.169 108.215 134.453 107.16ZM166.602 123H162.031L161.23 120.207H160.918C160.28 121.223 159.375 122.01 158.203 122.57C157.031 123.117 155.697 123.391 154.199 123.391C151.647 123.391 149.714 122.707 148.398 121.34C147.096 119.973 146.445 117.993 146.445 115.402V101.164H152.402V113.918C152.402 115.507 152.682 116.691 153.242 117.473C153.815 118.254 154.707 118.645 155.918 118.645C157.585 118.645 158.789 118.091 159.531 116.984C160.273 115.878 160.645 114.029 160.645 111.438V101.164H166.602V123ZM185.039 100.754C185.859 100.754 186.53 100.812 187.051 100.93L186.602 106.516C186.133 106.385 185.547 106.32 184.844 106.32C182.943 106.32 181.458 106.809 180.391 107.785C179.336 108.762 178.809 110.129 178.809 111.887V123H172.852V101.164H177.363L178.242 104.836H178.535C179.238 103.586 180.15 102.603 181.27 101.887C182.415 101.132 183.672 100.754 185.039 100.754Z" fill="#EDF6FF"/>
<defs>
<filter id="filter0_dd_267_201" x="0" y="0" width="203" height="203" filterUnits="userSpaceOnUse" color-interpolation-filters="sRGB">
<feFlood flood-opacity="0" result="BackgroundImageFix"/>
<feColorMatrix in="SourceAlpha" type="matrix" values="0 0 0 0 0 0 0 0 0 0 0 0 0 0 0 0 0 0 127 0" result="hardAlpha"/>
<feOffset dx="-4" dy="-4"/>
<feGaussianBlur stdDeviation="5"/>
<feColorMatrix type="matrix" values="0 0 0 0 0.741667 0 0 0 0 0.741667 0 0 0 0 0.741667 0 0 0 0.4 0"/>
<feBlend mode="normal" in2="BackgroundImageFix" result="effect1_dropShadow_267_201"/>
<feColorMatrix in="SourceAlpha" type="matrix" values="0 0 0 0 0 0 0 0 0 0 0 0 0 0 0 0 0 0 127 0" result="hardAlpha"/>
<feOffset dx="4" dy="4"/>
<feGaussianBlur stdDeviation="2"/>
<feColorMatrix type="matrix" values="0 0 0 0 0 0 0 0 0 0 0 0 0 0 0 0 0 0 0.25 0"/>
<feBlend mode="normal" in2="effect1_dropShadow_267_201" result="effect2_dropShadow_267_201"/>
<feBlend mode="normal" in="SourceGraphic" in2="effect2_dropShadow_267_201" result="shape"/>
</filter>
<linearGradient id="paint0_linear_267_201" x1="104.5" y1="14" x2="104.5" y2="195" gradientUnits="userSpaceOnUse">
<stop stop-color="#20A4F3"/>
<stop offset="1" stop-color="#59F8E8"/>
</linearGradient>
</defs>
</svg>
